<svg xmlns="http://www.w3.org/2000/svg" xmlns:xlink="http://www.w3.org/1999/xlink" viewBox="0 0 24 24"><path d="M 7.081 18.931 C 15.273 19.853 19.843 13.955 17.88 10.023 C 12.609 -0.53 -1.763 19.87 11.928 17.902 M 2.754 12.66 L 2.737 12.66 C 2.555 12.66 1.857 12.66 1.034 12.727 M 4.545 18.931 C 4.162 19.13 2.673 20.281 2.346 20.5 M 11.503 22 L 11.212 23 M 14.294 1.224 C 14.053 2.28 13.894 3.229 13.894 3.486 M 18.545 6.727 C 18.744 6.529 21.062 4.617 22.648 3.486 M 21.379 11.313 C 21.379 11.313 21.952 11.202 22.648 11.105 M 18.545 17.902 C 19.272 18.273 20.483 19.363 20.996 20.009 M 2.09 2.091 C 4.908 3.486 6.727 5.545 7.454 6.909" fill="transparent" stroke-width="1.64" stroke="rgba(255, 255, 255, 0.65)" stroke-linecap="round" stroke-linejoin="round" stroke-dasharray=""></path></svg>